<svg width="16" height="15" viewBox="0 0 16 15" fill="none" xmlns="http://www.w3.org/2000/svg">
    <path fill-rule="evenodd" clip-rule="evenodd" d="M14.3244 8.4404H3.3521L8.14572 13.234C8.52882 13.6171 8.52882 14.2458 8.14572 14.6289C7.76262 15.012 7.14377 15.012 6.76068 14.6289L0.287322 8.15553C-0.0957747 7.77243 -0.0957747 7.15358 0.287322 6.77049L6.75086 0.287309C6.93438 0.10337 7.18354 0 7.44338 0C7.70321 0 7.95237 0.10337 8.1359 0.287309C8.51899 0.670405 8.51899 1.28925 8.1359 1.67235L3.3521 6.4758H14.3244C14.8647 6.4758 15.3067 6.91783 15.3067 7.4581C15.3067 7.99836 14.8647 8.4404 14.3244 8.4404Z" fill="#312719"/>
</svg>
