<svg width="11" height="12" viewBox="0 0 11 12" fill="none" xmlns="http://www.w3.org/2000/svg">
    <path fill-rule="evenodd" clip-rule="evenodd" d="M0.705445 6.69989H8.58526L5.14269 10.505C4.86757 10.8091 4.86757 11.3081 5.14269 11.6122C5.41781 11.9163 5.86224 11.9163 6.13737 11.6122L10.7862 6.47377C11.0614 6.16967 11.0614 5.67844 10.7862 5.37434L6.14442 0.228062C6.01262 0.0820542 5.83369 0 5.64708 0C5.46048 0 5.28155 0.0820542 5.14975 0.228062C4.87462 0.53216 4.87462 1.0234 5.14975 1.32749L8.58526 5.14042H0.705445C0.31745 5.14042 0 5.4913 0 5.92016C0 6.34901 0.31745 6.69989 0.705445 6.69989Z" fill="white"/>
</svg>