<svg width="16" height="15" viewBox="0 0 16 15" fill="none" xmlns="http://www.w3.org/2000/svg">
    <path fill-rule="evenodd" clip-rule="evenodd" d="M0.9823 8.4404H11.9546L7.16097 13.234C6.77787 13.6171 6.77787 14.2458 7.16097 14.6289C7.54406 15.012 8.16291 15.012 8.54601 14.6289L15.0194 8.15553C15.4025 7.77243 15.4025 7.15358 15.0194 6.77049L8.55583 0.287309C8.37231 0.10337 8.12315 0 7.86331 0C7.60347 0 7.35431 0.10337 7.17079 0.287309C6.78769 0.670405 6.78769 1.28925 7.17079 1.67235L11.9546 6.4758H0.9823C0.442035 6.4758 0 6.91783 0 7.4581C0 7.99836 0.442035 8.4404 0.9823 8.4404Z" fill="white"/>
</svg>
